<svg xmlns="http://www.w3.org/2000/svg" viewBox="0 0 200 100">
  <!-- Círculo de contorno -->
  <circle cx="50" cy="50" r="40" fill="none" stroke="#1E88E5" stroke-width="2"/>
  
  <!-- Libro mejorado -->
  <!-- Sombra/profundidad del libro -->
  <path d="M20 47 L20 65 C20 65, 25 68, 45 68 C65 68, 70 65, 70 65 L70 47" 
        fill="#E3F2FD" stroke="none"/>
  
  <!-- Páginas izquierdas -->
  <path d="M20 47 C20 47, 25 44, 45 44 L45 65 C25 65, 20 68, 20 68 Z" 
        fill="#FFFFFF" stroke="#1E88E5" stroke-width="1.5"/>
  
  <!-- Páginas derechas -->
  <path d="M45 44 C65 44, 70 47, 70 47 L70 68 C70 68, 65 65, 45 65 Z" 
        fill="#FFFFFF" stroke="#1E88E5" stroke-width="1.5"/>
  
  <!-- Línea central del libro -->
  <path d="M45 44 L45 65" stroke="#1E88E5" stroke-width="1.5"/>
  
  <!-- Detalles de las páginas -->
  <path d="M25 50 L40 50" stroke="#1E88E5" stroke-width="0.5"/>
  <path d="M25 54 L40 54" stroke="#1E88E5" stroke-width="0.5"/>
  <path d="M25 58 L40 58" stroke="#1E88E5" stroke-width="0.5"/>
  
  <path d="M50 50 L65 50" stroke="#1E88E5" stroke-width="0.5"/>
  <path d="M50 54 L65 54" stroke="#1E88E5" stroke-width="0.5"/>
  <path d="M50 58 L65 58" stroke="#1E88E5" stroke-width="0.5"/>
  
<!-- Lupa -->
  <circle cx="70" cy="35" r="7" fill="none" stroke="#1E88E5" stroke-width="2.5"/>
  <line x1="75" y1="40" x2="82" y2="47" stroke="#1E88E5" stroke-width="3"/>
  <line x1="82" y1="47" x2="84" y2="49" stroke="#1E88E5" stroke-width="4" stroke-linecap="round"/>
  
  <!-- Gráfico de barras -->
  <rect x="35" y="30" width="4" height="10" fill="#1565C0"/>
  <rect x="41" y="25" width="4" height="15" fill="#1565C0"/>
  <rect x="47" y="32" width="4" height="8" fill="#1565C0"/>
  
</svg>